PathFileType	4	(X/Y/Z)	30_2_71_p1_0-392_filt_butterworth.trc
DataRate	CameraRate	NumFrames	NumMarkers	Units	OrigDataRate	OrigDataStartFrame	OrigNumFrames
51.0	51.0	4	27	m	51.0	0	392
Frame#	Time	RHip			RKnee			RAnkle			RBigToe			RSmallToe			RHeel			LHip			LKnee			LAnkle			LBigToe			LSmallToe			LHeel			Neck			Head			Nose			RShoulder			RElbow			RWrist			RThumb			RIndex			RPinky			LShoulder			LElbow			LWrist			LThumb			LIndex			LPinky			
		X1	Y1	Z1	X2	Y2	Z2	X3	Y3	Z3	X4	Y4	Z4	X5	Y5	Z5	X6	Y6	Z6	X7	Y7	Z7	X8	Y8	Z8	X9	Y9	Z9	X10	Y10	Z10	X11	Y11	Z11	X12	Y12	Z12	X13	Y13	Z13	X14	Y14	Z14	X15	Y15	Z15	X16	Y16	Z16	X17	Y17	Z17	X18	Y18	Z18	X19	Y19	Z19	X20	Y20	Z20	X21	Y21	Z21	X22	Y22	Z22	X23	Y23	Z23	X24	Y24	Z24	X25	Y25	Z25	X26	Y26	Z26	X27	Y27	Z27	
0	0.0	0.2624865884411064	0.5195140111305883	0.8973430456758136	0.2525634870886176	0.4983733985040915	1.3289570784611864	0.24532654787706257	0.5762350091574306	1.8140305576060083	0.22772718828646205	0.3095456542087984	1.7507051538295018	0.2819089998064367	0.3776316372567048	1.7931478010056816	0.25668103391271546	0.6548644875340851	1.8974662829246842	0.05088575106314072	0.5267086485878386	0.9144081580328249	0.07164785392129298	0.5352440069447066	1.3524054646573744	0.07478521899423211	0.5385687733532568	1.8009117324415276	0.1040889783628445	0.31198850348016294	1.7526419914908724	0.05561164759035282	0.3638279860177735	1.783859433362689	0.08248789400745907	0.5722718726567836	1.8510437475772994	0.13350444149048815	0.5778409646175406	0.23556791688728207	0.11431751156904904	0.5691275682368416	-0.007296393257406689	0.10969676914442919	0.510080436119397	0.11913438558238645	0.3218899747656821	0.5357276169657285	0.3409851794885618	0.31708827187994254	0.3249273018565581	0.46070850849763634	0.1721420566836889	0.09364984520269971	0.48225521915981195	0.1662790611078365	0.07931212971066162	0.5167428705442609	0.10929366629427573	0.019174466506875838	0.5059392027949612	0.08974898226398287	0.03652884159767557	0.5287951711436072	-0.05557526704985976	0.5649071238833863	0.34360247488158124	-0.0605193556870916	0.3387192154446891	0.467525902411149	0.055391606561651006	0.14569877271791298	0.5097751860199031	0.1329957773303045	0.0989378336501304	0.5395733763445903	0.1379759316539056	0.026693577545089317	0.5236638477400846	0.09966612483954933	0.03001543004446265	0.5435702764862336
1	0.0196078431372549	0.2649195273784251	0.5209212017021766	0.8985036280874525	0.25363910066660894	0.4834736978388382	1.3220166879900501	0.2473951277107774	0.5650139200307484	1.8100222339905068	0.23011466197468775	0.31131899713126054	1.7613551172683741	0.29066465316909623	0.37380339912981414	1.7896163464265047	0.2538007845030319	0.652598673389011	1.897494639812498	0.05084879423454337	0.5274590409727079	0.911782687703259	0.0706873046429608	0.5309928831501305	1.350031918689926	0.07465574358215729	0.5387111840877117	1.8009453544553133	0.10431499805877567	0.31203492243663944	1.751818093913851	0.05237936251200395	0.3734399933146332	1.79068101760186	0.07900083977533344	0.5682973285435147	1.8483969632053974	0.13349458322140084	0.5777593235183727	0.23547792171632162	0.11562557419922179	0.5646160781823184	-0.005396350491625535	0.11221822542034471	0.5107625150784483	0.11905546263199068	0.3232984098030385	0.5361757573435649	0.34082135459210106	0.3182854540217773	0.32966644722361216	0.46024105946910715	0.17226789394325223	0.09354195366857039	0.48510607654955895	0.1575355318241108	0.08963944125850518	0.521443359502233	0.10879120715714767	0.02712127746237367	0.5103577988748069	0.0985386595360955	0.017687451615644716	0.5299545683146372	-0.05407333471672175	0.5665870905141062	0.34601144183987353	-0.05764549682201264	0.33975786114579454	0.4702587739575278	0.05402326679697744	0.14162940772488655	0.5126758732221071	0.13710879056833838	0.08764077526770873	0.5431530868493976	0.1401932352539242	0.019113261988957936	0.5247787070924662	0.09660210769485529	0.03413743944165593	0.5487387370600904
2	0.0392156862745098	0.26636257477681147	0.5207865614230522	0.89715231060211	0.25339221642618004	0.473059475372615	1.3172351210411293	0.24854318865312727	0.5588131027548823	1.8077105497406856	0.2323300055053764	0.3114692109117164	1.7659423002976815	0.2952737463733715	0.3718355999601289	1.7880063190271325	0.25264298502186144	0.6482100291635228	1.8968852483338705	0.05071856269549688	0.528418685209825	0.908282557126113	0.06952039655418976	0.5265075648444268	1.348517766206282	0.0745726337551393	0.5387410968652198	1.80096646744518	0.10427101137057056	0.3120620653903774	1.7522257263821035	0.05222399857559348	0.37377350340262266	1.791079925589295	0.07765618465949543	0.5675743031623103	1.8484145158621486	0.13352337933061573	0.5776667533666493	0.23541855768014316	0.11665573727403082	0.5643581829414329	-0.00442869197689007	0.113297847623457	0.5111268293781034	0.11916050448455243	0.3247039728147414	0.5364796083082732	0.340694987845936	0.3171267946260967	0.33279654834033606	0.461591302903763	0.17114326222892537	0.09007599768141983	0.4863693346176245	0.14345497084596548	0.09517468892699245	0.518862734097597	0.10683849471136152	0.02858054706671087	0.5136201924096981	0.1029073032595747	0.004800501377405062	0.5333155156620117	-0.05269849270205694	0.5682304377154895	0.34653415512187297	-0.056095719936765154	0.34032527331900014	0.47106174375100446	0.05335091126796939	0.13986004709167346	0.5153250620942345	0.13584019245612966	0.08520646125141765	0.5472841075388677	0.1416321177213125	0.015099787905840482	0.527556981691453	0.09748283786235208	0.03174375516019233	0.5505590675180977
3	0.0588235294117647	0.26727973391010745	0.5176886545323627	0.8934287681606867	0.2524841057185259	0.47008169607819617	1.316035176862933	0.248693007781449	0.5576454078837607	1.8076202261841776	0.233672845300258	0.30814517983710604	1.7634637131548243	0.2959491035808728	0.37250277738422144	1.7895968436493344	0.2530225742423096	0.6427288320603516	1.89578684623751	0.050538580099486724	0.5293156237834875	0.9049795632133604	0.06854921983292257	0.523533408738276	1.349235794354709	0.0745534271333056	0.5386469996913086	1.8009679500116933	0.10415181657177887	0.3119717229192044	1.753025383992176	0.05518593260624398	0.3647301364452698	1.7849814459474413	0.07813538962246228	0.5690523494980836	1.8506000226729376	0.13358573855921518	0.5775596288541132	0.23539530001289596	0.11812936085940691	0.5664605397868688	-0.004363737131027552	0.11321030100210588	0.5112111322846888	0.11932836319744194	0.32566352775202473	0.5365361435003612	0.34094487413352736	0.313895936988138	0.3332958413219759	0.46393225726854526	0.16964766721258243	0.08581450703340054	0.48625794498630187	0.1288863994461233	0.09794451554573494	0.5123528305488828	0.10462463175467213	0.02556397972810872	0.515234444015878	0.10323879379392659	-0.0002723530086910979	0.5365817064125964	-0.05188331732914641	0.5691739700914342	0.3454328313409815	-0.05579465449277585	0.34040433499670225	0.47050839473361905	0.05363663463249554	0.14109655125862053	0.5173544752788848	0.13128296191138863	0.0890704497331013	0.5507379454823026	0.14221355582615974	0.014441577519655639	0.5304575864531669	0.10031194572605262	0.029733354072119238	0.551574163524706
